<mxfile host="app.diagrams.net" agent="Mozilla/5.0 (Macintosh; Intel Mac OS X 10_15_7) AppleWebKit/537.36 (KHTML, like Gecko) Chrome/129.0.0.0 Safari/537.36" version="28.0.5">
  <diagram name="ページ1" id="DH8y1X9Xug1rH0PPqZtP">
    <mxGraphModel dx="1968" dy="1211" grid="1" gridSize="10" guides="1" tooltips="1" connect="1" arrows="1" fold="1" page="1" pageScale="1" pageWidth="827" pageHeight="1169" math="0" shadow="0">
      <root>
        <mxCell id="0" />
        <mxCell id="1" parent="0" />
        <mxCell id="A_GpXiCFfLwrVb7rmse3-1" value="先行研究レビュー" style="text;html=1;align=center;verticalAlign=middle;resizable=0;points=[];autosize=1;strokeColor=none;fillColor=none;" vertex="1" parent="1">
          <mxGeometry x="320" y="277.5" width="120" height="30" as="geometry" />
        </mxCell>
        <mxCell id="A_GpXiCFfLwrVb7rmse3-2" value="要因抽出" style="text;html=1;align=center;verticalAlign=middle;resizable=0;points=[];autosize=1;strokeColor=none;fillColor=none;" vertex="1" parent="1">
          <mxGeometry x="340" y="317.5" width="70" height="30" as="geometry" />
        </mxCell>
        <mxCell id="A_GpXiCFfLwrVb7rmse3-3" value="要因分類" style="text;html=1;align=center;verticalAlign=middle;resizable=0;points=[];autosize=1;strokeColor=none;fillColor=none;" vertex="1" parent="1">
          <mxGeometry x="340" y="357.5" width="70" height="30" as="geometry" />
        </mxCell>
        <mxCell id="A_GpXiCFfLwrVb7rmse3-4" value="アンケート設計" style="text;html=1;align=center;verticalAlign=middle;resizable=0;points=[];autosize=1;strokeColor=none;fillColor=none;" vertex="1" parent="1">
          <mxGeometry x="325" y="410" width="110" height="30" as="geometry" />
        </mxCell>
        <mxCell id="A_GpXiCFfLwrVb7rmse3-5" value="アンケート実施" style="text;html=1;align=center;verticalAlign=middle;resizable=0;points=[];autosize=1;strokeColor=none;fillColor=none;" vertex="1" parent="1">
          <mxGeometry x="325" y="460" width="110" height="30" as="geometry" />
        </mxCell>
        <mxCell id="A_GpXiCFfLwrVb7rmse3-6" value="アンケート項目と要因・分類の妥当性評価" style="text;html=1;align=center;verticalAlign=middle;resizable=0;points=[];autosize=1;strokeColor=none;fillColor=none;" vertex="1" parent="1">
          <mxGeometry x="250" y="510" width="250" height="30" as="geometry" />
        </mxCell>
        <mxCell id="A_GpXiCFfLwrVb7rmse3-9" value="満足度と要因の相関分析" style="text;html=1;align=center;verticalAlign=middle;resizable=0;points=[];autosize=1;strokeColor=none;fillColor=none;" vertex="1" parent="1">
          <mxGeometry x="300" y="590" width="160" height="30" as="geometry" />
        </mxCell>
        <mxCell id="A_GpXiCFfLwrVb7rmse3-10" value="要因同士の相関分析" style="text;html=1;align=center;verticalAlign=middle;resizable=0;points=[];autosize=1;strokeColor=none;fillColor=none;" vertex="1" parent="1">
          <mxGeometry x="315" y="630" width="130" height="30" as="geometry" />
        </mxCell>
        <mxCell id="A_GpXiCFfLwrVb7rmse3-14" value="" style="swimlane;startSize=0;" vertex="1" parent="1">
          <mxGeometry x="240" y="270" width="280" height="117.5" as="geometry" />
        </mxCell>
        <mxCell id="A_GpXiCFfLwrVb7rmse3-15" value="" style="swimlane;startSize=0;" vertex="1" parent="1">
          <mxGeometry x="240" y="410" width="280" height="30" as="geometry" />
        </mxCell>
        <mxCell id="A_GpXiCFfLwrVb7rmse3-16" value="" style="swimlane;startSize=0;" vertex="1" parent="1">
          <mxGeometry x="240" y="460" width="280" height="30" as="geometry" />
        </mxCell>
        <mxCell id="A_GpXiCFfLwrVb7rmse3-17" value="" style="swimlane;startSize=0;" vertex="1" parent="1">
          <mxGeometry x="240" y="510" width="280" height="30" as="geometry" />
        </mxCell>
        <mxCell id="A_GpXiCFfLwrVb7rmse3-18" value="" style="swimlane;startSize=0;" vertex="1" parent="1">
          <mxGeometry x="240" y="590" width="280" height="70" as="geometry" />
        </mxCell>
        <mxCell id="A_GpXiCFfLwrVb7rmse3-19" value="" style="swimlane;startSize=0;" vertex="1" parent="1">
          <mxGeometry x="240" y="680" width="280" height="70" as="geometry" />
        </mxCell>
        <mxCell id="A_GpXiCFfLwrVb7rmse3-12" value="総効果によるランク付け" style="text;html=1;align=center;verticalAlign=middle;resizable=0;points=[];autosize=1;strokeColor=none;fillColor=none;" vertex="1" parent="A_GpXiCFfLwrVb7rmse3-19">
          <mxGeometry x="60" y="40" width="160" height="30" as="geometry" />
        </mxCell>
        <mxCell id="A_GpXiCFfLwrVb7rmse3-11" value="DirectLiNGAMによる因果構造の推定" style="text;html=1;align=center;verticalAlign=middle;resizable=0;points=[];autosize=1;strokeColor=none;fillColor=none;" vertex="1" parent="A_GpXiCFfLwrVb7rmse3-19">
          <mxGeometry x="30" width="220" height="30" as="geometry" />
        </mxCell>
        <mxCell id="A_GpXiCFfLwrVb7rmse3-20" value="" style="swimlane;startSize=0;" vertex="1" parent="1">
          <mxGeometry x="240" y="800" width="280" height="30" as="geometry" />
        </mxCell>
        <mxCell id="A_GpXiCFfLwrVb7rmse3-13" value="満足度傾向による開発者クラスタの分析" style="text;html=1;align=center;verticalAlign=middle;resizable=0;points=[];autosize=1;strokeColor=none;fillColor=none;" vertex="1" parent="A_GpXiCFfLwrVb7rmse3-20">
          <mxGeometry x="20" width="240" height="30" as="geometry" />
        </mxCell>
      </root>
    </mxGraphModel>
  </diagram>
</mxfile>
